<svg width="27" height="24" viewBox="0 0 27 24" fill="none" xmlns="http://www.w3.org/2000/svg">
<path d="M3.13084 1.84991C6.40078 -0.941345 10.5734 -0.337074 13.4026 2.08615C16.2249 -0.337542 20.3404 -0.906384 23.6457 1.83821C27.2699 4.8476 27.7058 9.98414 24.9145 13.5726L24.9145 13.5727C23.8606 14.9274 21.8106 16.9553 19.849 18.8051C17.8618 20.679 15.8795 22.4494 14.902 23.3143L14.9018 23.3144C14.8088 23.3967 14.6817 23.5105 14.5594 23.6026C14.4212 23.7065 14.2184 23.839 13.946 23.92L13.9459 23.9201C13.5878 24.0266 13.203 24.0267 12.8445 23.92C12.5723 23.839 12.3695 23.7066 12.2312 23.6026C12.1087 23.5105 11.9815 23.3967 11.8884 23.3142V23.3142C10.9109 22.4493 8.92862 20.6789 6.94152 18.8051C4.97991 16.9553 2.92987 14.9274 1.87602 13.5727C-0.927124 9.96899 -0.41004 4.87243 3.13084 1.84991ZM12.3922 4.83782C10.3591 2.46318 7.18041 1.90161 4.85888 3.88328C2.39132 5.98961 2.0625 9.46816 3.97782 11.9305L4.02108 11.9857C4.94486 13.1564 6.81539 15.0188 8.76774 16.8598C10.5653 18.5549 12.3636 20.1684 13.3953 21.0841C14.4269 20.1684 16.2252 18.5549 18.0227 16.8598C20.0061 14.9896 21.905 13.0973 22.8127 11.9304C24.7398 9.45294 24.4329 5.96044 21.9455 3.89494C19.5597 1.91392 16.4382 2.47448 14.4147 4.83782C14.1616 5.13349 13.7922 5.3036 13.4035 5.3036C13.0147 5.3036 12.6454 5.13349 12.3922 4.83782Z" fill="black"/>
</svg>
