<svg width="30" height="30" viewBox="0 0 30 30" fill="none" xmlns="http://www.w3.org/2000/svg">
<path fill-rule="evenodd" clip-rule="evenodd" d="M6.33548 19.1693L15 30L23.6646 19.1693C25.3382 17.0773 26.25 14.4779 26.25 11.7987V11.25C26.25 5.03679 21.2132 0 15 0C8.78679 0 3.75 5.03679 3.75 11.25V11.7987C3.75 14.4779 4.66181 17.0773 6.33548 19.1693ZM15 15C17.0711 15 18.75 13.3211 18.75 11.25C18.75 9.17893 17.0711 7.5 15 7.5C12.9289 7.5 11.25 9.17893 11.25 11.25C11.25 13.3211 12.9289 15 15 15Z" fill="#ABABAB"/>
</svg>
